<svg height='auto' width='auto'  fill="#FFFFFF" xmlns="http://www.w3.org/2000/svg" xmlns:xlink="http://www.w3.org/1999/xlink" version="1.1" x="0px" y="0px" viewBox="0 0 48 48" enable-background="new 0 0 48 48" xml:space="preserve"><g><g><path fill="#FFFFFF" d="M47.5,41.4h-47v-1c0-13,10.5-23.5,23.5-23.5s23.5,10.5,23.5,23.5V41.4z M2.5,39.4h43    C45,28,35.5,18.9,24,18.9S3,28,2.5,39.4z"></path></g><rect x="23" y="1.5" fill="#FFFFFF" width="2" height="16.4"></rect><path fill="#FFFFFF" d="M24,47.5c-3.9,0-7.1-3.2-7.1-7.1v-1h14.3v1C31.1,44.3,27.9,47.5,24,47.5z M19,41.4c0.5,2.4,2.5,4.1,5,4.1   c2.5,0,4.6-1.8,5-4.1H19z"></path><rect x="5.6" y="0.5" fill="#FFFFFF" width="36.8" height="2"></rect></g></svg>