<svg height='auto' width='auto'  fill="#FFFFFF" xmlns="http://www.w3.org/2000/svg" xmlns:xlink="http://www.w3.org/1999/xlink" version="1.1" x="0px" y="0px" viewBox="0 0 60 60" style="enable-background:new 0 0 60 60;" xml:space="preserve"><path d="M36.8446045,41.6725464v-3.7373657c2.7348633-2.118103,4.3560791-5.3974609,4.3560791-8.8543701  c0-6.1759644-5.0247192-11.2006836-11.2006836-11.2006836s-11.2006836,5.0247192-11.2006836,11.2006836  c0,3.4569092,1.6212158,6.7362671,4.3560791,8.8543701v3.7373657c0,0.4349976,0.352356,0.7869873,0.7869873,0.7869873h12.1152344  C36.4922485,42.4595337,36.8446045,42.1075439,36.8446045,41.6725464z M35.2706299,37.5401001v3.345459H24.7293701v-3.345459  c0-0.2536011-0.1221924-0.4918213-0.328186-0.6394043c-2.5223389-1.8091431-4.0278931-4.732666-4.0278931-7.8198853  c0-5.3082886,4.3184204-9.626709,9.626709-9.626709s9.626709,4.3184204,9.626709,9.626709  c0,3.0872192-1.5055542,6.0100098-4.0278931,7.8198853C35.3928223,37.0482788,35.2706299,37.286499,35.2706299,37.5401001z"></path><path d="M35.5853882,45.2800903c0-0.4349976-0.352417-0.7869873-0.7869873-0.7869873h-9.5968018  c-0.4345703,0-0.7869873,0.3519897-0.7869873,0.7869873s0.352417,0.7869873,0.7869873,0.7869873h9.5968018  C35.2329712,46.0670776,35.5853882,45.7150879,35.5853882,45.2800903z"></path><path d="M27.7481689,48.100647c-0.4345703,0-0.7869873,0.3519897-0.7869873,0.7869873s0.352417,0.7869873,0.7869873,0.7869873  h4.5036621c0.4345703,0,0.7869873-0.3519897,0.7869873-0.7869873s-0.352417-0.7869873-0.7869873-0.7869873H27.7481689z"></path><path d="M29.2130127,11.1123657v3.6751709c0,0.4349365,0.352356,0.7869263,0.7869873,0.7869263  s0.7869873-0.3519897,0.7869873-0.7869263v-3.6751709c0-0.4349976-0.352356-0.7869873-0.7869873-0.7869873  S29.2130127,10.6773682,29.2130127,11.1123657z"></path><path d="M16.7376709,15.8189087c-0.307373,0.307373-0.307373,0.8054199,0,1.112854l2.5988159,2.5983887  c0.1537476,0.1537476,0.3551025,0.2305908,0.5564575,0.2305908s0.40271-0.0768433,0.5563965-0.2305908  c0.3074341-0.307373,0.3074341-0.8054199,0-1.112854l-2.5988159-2.5983887  C17.5431519,15.5114746,17.045105,15.5114746,16.7376709,15.8189087z"></path><path d="M12.0311279,28.2938232c-0.4345703,0-0.7869873,0.3519897-0.7869873,0.7869873s0.352417,0.7869873,0.7869873,0.7869873  h3.6755981c0.4345703,0,0.7869263-0.3519897,0.7869263-0.7869873s-0.352356-0.7869873-0.7869263-0.7869873H12.0311279z"></path><path d="M17.2941284,42.5740356c0.201355,0,0.40271-0.0768433,0.5563965-0.2305298l2.5988159-2.5991821  c0.3074341-0.3074341,0.3074341-0.805481,0-1.112854c-0.307373-0.3074341-0.8054199-0.3074341-1.112854,0l-2.5988159,2.5991821  c-0.307373,0.3074341-0.307373,0.8054199,0,1.112854C16.8914185,42.4971924,17.0927734,42.5740356,17.2941284,42.5740356z"></path><path d="M43.2623291,15.8189087c-0.3074341-0.3074341-0.805481-0.3074341-1.112854,0l-2.5992432,2.5983887  c-0.307373,0.3074341-0.307373,0.805481,0,1.112854c0.1537476,0.1537476,0.3551025,0.2305908,0.5564575,0.2305908  s0.40271-0.0768433,0.5563965-0.2305908l2.5992432-2.5983887C43.5697021,16.6243286,43.5697021,16.1262817,43.2623291,15.8189087z"></path><path d="M44.2932739,29.8677979h3.6755981c0.4345703,0,0.7869873-0.3519897,0.7869873-0.7869873  s-0.352417-0.7869873-0.7869873-0.7869873h-3.6755981c-0.4345703,0-0.7869263,0.3519897-0.7869263,0.7869873  S43.8587036,29.8677979,44.2932739,29.8677979z"></path><path d="M42.1494751,42.3435059c0.1536865,0.1536865,0.3550415,0.2305298,0.5563965,0.2305298  s0.40271-0.0768433,0.5564575-0.2305298c0.307373-0.3074341,0.307373-0.8054199,0-1.112854l-2.5992432-2.5991821  c-0.307373-0.3074341-0.8054199-0.3074341-1.112854,0c-0.307373,0.307373-0.307373,0.8054199,0,1.112854L42.1494751,42.3435059z"></path></svg>