<svg  height='auto' width='auto'  fill="#000000" xmlns="http://www.w3.org/2000/svg" viewBox="0 0 64 64" x="0px" y="0px"><path d="M57,16a1,1,0,0,0-1-1H8a1,1,0,0,0,0,2H56A1,1,0,0,0,57,16Z"></path><path d="M16,19a1,1,0,0,0,0,2H50a1,1,0,0,0,0-2Z"></path><path d="M16,32a1,1,0,0,0,1,1H51a1,1,0,0,0,0-2H17A1,1,0,0,0,16,32Z"></path><path d="M51,39H17a1,1,0,0,0,0,2H51a1,1,0,0,0,0-2Z"></path><path d="M11,48a1,1,0,0,0,1,1H46a1,1,0,0,0,0-2H12A1,1,0,0,0,11,48Z"></path><path d="M57,29a1,1,0,0,0,0-2H23a1,1,0,0,0,0,2Z"></path><path d="M19,44a1,1,0,0,0,1,1H58a1,1,0,0,0,0-2H20A1,1,0,0,0,19,44Z"></path><path d="M61,23H3a1,1,0,0,0,0,2H61a1,1,0,0,0,0-2Z"></path><path d="M61,35H3a1,1,0,0,0,0,2H61a1,1,0,0,0,0-2Z"></path></svg>