<svg xmlns="http://www.w3.org/2000/svg" xmlns:xlink="http://www.w3.org/1999/xlink" xml:space="preserve" version="1.1" style="shape-rendering:geometricPrecision;text-rendering:geometricPrecision;image-rendering:optimizeQuality;" viewBox="0 0 316 316" x="0px" y="0px" fill-rule="evenodd" clip-rule="evenodd"><defs><style type="text/css">
   
    .fil0 {fill:black;fill-rule:nonzero}
   
  </style></defs><g><path class="fil0" d="M158 0c88,0 158,71 158,158 0,88 -70,158 -158,158 -87,0 -158,-70 -158,-158 0,-87 71,-158 158,-158zm0 20c-76,0 -138,62 -138,138 0,76 62,138 138,138 76,0 138,-62 138,-138 0,-76 -62,-138 -138,-138z"></path><path class="fil0" d="M148 85c0,-13 20,-13 20,0l0 4c0,13 -20,13 -20,0l0 -4zm0 41c0,-13 20,-13 20,0l0 105c0,13 -20,13 -20,0l0 -105z"></path></g></svg>