<svg  height='auto' width='auto'  fill="#FFFFFF" xmlns="http://www.w3.org/2000/svg" viewBox="0 0 36 36" x="0px" y="0px"><title>Монтажная область 66</title><path d="M34.11,17.11H33.3l.25-.49a.91.91,0,0,0-.39-1.21.89.89,0,0,0-1.2.39l-.67,1.31H29.72l1.17-2.28a.9.9,0,0,0-1.6-.82l-1.58,3.1H20.16l5.34-5.34,3.31,1.06a.86.86,0,0,0,.27.05.89.89,0,0,0,.85-.62.9.9,0,0,0-.58-1.13l-2.43-.78L28,9.24l1.39.45a.9.9,0,0,0,.28,0,.89.89,0,0,0,.85-.62A.9.9,0,0,0,30,8l-.52-.17L30,7.24A.89.89,0,0,0,28.76,6l-.57.57L28,6a.9.9,0,0,0-1.71.55L26.76,8,25.65,9.08l-.78-2.43a.9.9,0,0,0-1.13-.58.89.89,0,0,0-.57,1.12l1.06,3.31-5.34,5.34V8.29L22,6.71a.9.9,0,0,0-.82-1.6L18.89,6.28V4.71L20.2,4a.89.89,0,0,0,.39-1.2.91.91,0,0,0-1.21-.39l-.49.25V1.89a.89.89,0,0,0-1.78,0V2.7l-.49-.25a.91.91,0,0,0-1.21.39A.89.89,0,0,0,15.8,4l1.31.67V6.28L14.83,5.11A.9.9,0,0,0,14,6.71l3.1,1.58v7.55L11.77,10.5l1.06-3.31a.89.89,0,0,0-.57-1.12.9.9,0,0,0-1.13.58l-.78,2.43L9.24,8l.45-1.39A.9.9,0,1,0,8,6l-.17.52L7.24,6A.89.89,0,0,0,6,7.24l.57.57L6,8a.9.9,0,0,0-.58,1.13.89.89,0,0,0,.85.62.9.9,0,0,0,.28,0L8,9.24l1.11,1.11-2.43.78a.9.9,0,0,0-.58,1.13.89.89,0,0,0,.85.62.86.86,0,0,0,.27-.05l3.31-1.06,5.34,5.34H8.29L6.71,14a.9.9,0,0,0-1.6.82l1.17,2.28H4.71L4,15.8a.89.89,0,0,0-1.2-.39.91.91,0,0,0-.39,1.21l.25.49H1.89a.89.89,0,0,0,0,1.78H2.7l-.25.49a.91.91,0,0,0,.39,1.21,1,1,0,0,0,.41.09A.87.87,0,0,0,4,20.2l.67-1.31H6.28L5.11,21.17a.89.89,0,0,0,.39,1.2.86.86,0,0,0,.41.1.9.9,0,0,0,.8-.48l1.58-3.1h7.55L10.5,24.23,7.19,23.17a.88.88,0,0,0-1.12.57.9.9,0,0,0,.58,1.13l2.43.78L8,26.76l-1.39-.45A.9.9,0,1,0,6,28l.52.17L6,28.76A.89.89,0,0,0,6,30a.89.89,0,0,0,1.26,0l.57-.57L8,30a.9.9,0,0,0,.85.62.86.86,0,0,0,.28,0,.9.9,0,0,0,.58-1.13L9.24,28l1.11-1.11.78,2.43A.89.89,0,0,0,12,30a1,1,0,0,0,.28,0,.89.89,0,0,0,.57-1.12L11.77,25.5l5.34-5.34v7.55L14,29.29a.9.9,0,0,0-.38,1.21.88.88,0,0,0,.79.49,1,1,0,0,0,.41-.1l2.28-1.17v1.57L15.8,32a.89.89,0,0,0-.39,1.2.91.91,0,0,0,.8.49.86.86,0,0,0,.41-.1l.49-.25v.81a.89.89,0,0,0,1.78,0V33.3l.49.25a.86.86,0,0,0,.41.1.91.91,0,0,0,.8-.49A.89.89,0,0,0,20.2,32l-1.31-.67V29.72l2.28,1.17a1,1,0,0,0,.41.1.88.88,0,0,0,.79-.49A.9.9,0,0,0,22,29.29l-3.1-1.58V20.16l5.34,5.34-1.06,3.31a.89.89,0,0,0,.57,1.12A1,1,0,0,0,24,30a.89.89,0,0,0,.85-.62l.78-2.43L26.76,28l-.45,1.39a.9.9,0,0,0,.58,1.13.86.86,0,0,0,.28,0A.9.9,0,0,0,28,30l.17-.52.57.57A.89.89,0,0,0,30,30a.89.89,0,0,0,0-1.26l-.57-.57L30,28a.9.9,0,1,0-.55-1.71L28,26.76l-1.11-1.11,2.43-.78a.9.9,0,0,0,.58-1.13.88.88,0,0,0-1.12-.57L25.5,24.23l-5.34-5.34h7.55L29.29,22a.9.9,0,0,0,.8.48.86.86,0,0,0,.41-.1.89.89,0,0,0,.39-1.2l-1.17-2.28h1.57L32,20.2a.87.87,0,0,0,.79.48,1,1,0,0,0,.41-.09.91.91,0,0,0,.39-1.21l-.25-.49h.81a.89.89,0,0,0,0-1.78Z"></path></svg>