<svg  height='auto' width='auto'  fill="#FFFFFF" xmlns="http://www.w3.org/2000/svg" xmlns:xlink="http://www.w3.org/1999/xlink" version="1.1" x="0px" y="0px" viewBox="0 0 100 100" enable-background="new 0 0 100 100" xml:space="preserve"><g><path fill="none" stroke="#FFFFFF" stroke-width="4" stroke-linecap="round" stroke-linejoin="round" stroke-miterlimit="10" d="   M71,60.182h12.24c6.12,0,11.08-4.961,11.08-11.08c0-6.12-4.96-11.08-11.08-11.08c-0.061,0-0.119,0.008-0.179,0.009   c0-0.003,0.001-0.006,0.001-0.009c0-12.141-9.842-21.982-21.982-21.982c-8.865,0-16.486,5.26-19.962,12.819   c-2.312-1.22-4.942-1.918-7.739-1.918c-7.25,0-13.4,4.652-15.672,11.128c-0.312-0.026-0.627-0.047-0.947-0.047   c-6.12,0-11.08,4.96-11.08,11.08c0,6.119,4.96,11.08,11.08,11.08h14.49"></path><polygon fill="none" stroke="#FFFFFF" stroke-width="4" stroke-linecap="round" stroke-linejoin="round" stroke-miterlimit="10" points="   49.021,44.38 58.08,44.38 52.869,58.152 61.058,58.152 42.942,83.961 50.553,63.354 43.563,63.354  "></polygon></g></svg>