<svg height='auto' width='auto'  fill="#333333" xmlns="http://www.w3.org/2000/svg" xmlns:xlink="http://www.w3.org/1999/xlink" version="1.1" x="0px" y="0px" viewBox="0 0 65 65" enable-background="new 0 0 65 65" xml:space="preserve"><path d="M61,21.063H4c-1.517,0-2.75,1.233-2.75,2.75v15.75c0,2.412,1.962,4.375,4.375,4.375h53.75c2.412,0,4.375-1.963,4.375-4.375  v-15.75C63.75,22.296,62.517,21.063,61,21.063z M4,22.563h57c0.689,0,1.25,0.561,1.25,1.25v11.125H2.75V23.813  C2.75,23.123,3.311,22.563,4,22.563z M59.375,42.438H5.625c-1.585,0-2.875-1.29-2.875-2.875v-3.125h59.5v3.125  C62.25,41.147,60.96,42.438,59.375,42.438z"></path><path d="M17.75,27.563h29.5c0.414,0,0.75-0.336,0.75-0.75s-0.336-0.75-0.75-0.75h-29.5c-0.414,0-0.75,0.336-0.75,0.75  S17.336,27.563,17.75,27.563z"></path></svg>