<svg height='auto' width='auto'  fill="#333333" xmlns="http://www.w3.org/2000/svg" data-name="Layer 4" viewBox="0 0 238.11 210.47" x="0px" y="0px"><title>Artboard 5</title><path d="M39.36,62.38l-2.49-3.13L56.73,43.49l2.49,3.13ZM68.72,49.87l-2.49-3.13L37.86,69.25l2.49,3.13Zm145.73,95.19V42.33a5,5,0,0,0-5-5H35.67a5,5,0,0,0-5,5V145.06a5,5,0,0,0,5,5H209.45A5,5,0,0,0,214.45,145.06Zm-5-103.73a1,1,0,0,1,1,1V145.06a1,1,0,0,1-1,1H35.67a1,1,0,0,1-1-1V42.33a1,1,0,0,1,1-1Zm13.45,118.43V32.67a5,5,0,0,0-5-5H27.23a5,5,0,0,0-5,5V159.76a5,5,0,0,0,5,5H217.89A5,5,0,0,0,222.89,159.76Zm-5-128.09a1,1,0,0,1,1,1V159.76a1,1,0,0,1-1,1H27.23a1,1,0,0,1-1-1V32.67a1,1,0,0,1,1-1Zm-5.24,121.9H187.31v4h25.34Zm-59.13,7.19H92.81v19h60.71Zm-56.71,4h52.71v11H96.81Zm64.36,11H83.95v4h77.22Z"></path></svg>